<?xml version="1.0" encoding="UTF-8" standalone="no"?>
<svg
   class="img-fluid"
   id="outputsvg"
   style="transform: matrix(0.856831, 0, 0, 0.856831, 0, 0); transform-origin: 50% 50%; cursor: move; max-height: none; transition: transform 200ms ease-in-out 0s;"
   width="525"
   height="237"
   viewBox="0 0 5250 2370"
   version="1.1"
   sodipodi:docname="favicon.svg"
   inkscape:version="1.3.2 (091e20ef0f, 2023-11-25, custom)"
   xmlns:inkscape="http://www.inkscape.org/namespaces/inkscape"
   xmlns:sodipodi="http://sodipodi.sourceforge.net/DTD/sodipodi-0.dtd"
   xmlns="http://www.w3.org/2000/svg"
   xmlns:svg="http://www.w3.org/2000/svg">
  <defs
     id="defs2" />
  <sodipodi:namedview
     id="namedview2"
     pagecolor="#ffffff"
     bordercolor="#000000"
     borderopacity="0.25"
     inkscape:showpageshadow="2"
     inkscape:pageopacity="0.0"
     inkscape:pagecheckerboard="0"
     inkscape:deskcolor="#d1d1d1"
     inkscape:zoom="0.73714286"
     inkscape:cx="262.5"
     inkscape:cy="118.70155"
     inkscape:window-width="1900"
     inkscape:window-height="1017"
     inkscape:window-x="8"
     inkscape:window-y="51"
     inkscape:window-maximized="1"
     inkscape:current-layer="outputsvg" />
  <g
     id="l6HX8v5O2OjVRDROjPBTLFB"
     fill="#0e0209"
     transform="matrix(1.2037311,0,0,1.1778533,-560.25132,-183.78022)">
    <g
       id="g1">
      <path
         id="p10o9kdJFF"
         d="M 1509,2149 C 1286,2130 1057,2000 904,1807 615,1441 615,899 904,533 c 69,-87 199,-203 229,-203 9,0 17,-5 17,-11 0,-9 65,-42 74,-37 2,2 12,-5 23,-14 23,-22 83,-43 188,-68 116,-27 360,-16 420,19 6,3 19,7 30,8 27,4 83,31 90,43 4,6 11,8 16,5 5,-4 9,-1 9,6 0,7 3,10 6,6 14,-14 124,64 212,150 28,28 52,49 52,46 0,-3 6,0 13,6 8,6 17,7 21,3 4,-4 6,-2 4,3 -1,6 13,33 32,60 19,28 35,59 36,70 2,33 8,49 26,66 15,14 36,56 35,69 0,3 5,15 11,27 8,13 8,24 2,28 -14,8 0,37 16,31 9,-3 11,3 8,20 -4,24 -3,25 41,23 25,-2 56,-10 68,-18 25,-18 96,-23 115,-8 6,5 12,6 12,1 0,-5 11,-9 24,-9 13,0 22,4 18,9 -3,5 1,7 9,4 8,-3 32,4 53,17 38,23 38,23 58,3 11,-11 21,-25 22,-32 1,-6 4,-15 7,-21 4,-5 5,-21 4,-35 -1,-14 2,-34 8,-45 6,-11 11,-23 12,-27 0,-4 6,-13 13,-19 6,-7 12,-19 12,-26 0,-7 11,-19 25,-25 16,-7 25,-20 26,-35 3,-42 15,-67 29,-58 10,6 33,-22 26,-33 -3,-5 6,-15 19,-22 14,-7 25,-17 25,-22 0,-4 7,-8 15,-8 8,0 15,-6 15,-14 0,-15 62,-66 80,-66 6,0 8,-4 5,-10 -3,-5 -1,-10 5,-10 7,0 19,-9 28,-19 16,-19 45,-38 126,-82 68,-37 208,-77 305,-87 52,-5 100,-8 105,-7 6,2 44,6 84,9 41,3 79,9 85,13 7,4 18,8 27,8 28,3 125,38 150,55 14,9 40,22 58,29 17,8 32,17 32,22 0,5 7,9 15,9 9,0 18,7 21,15 4,8 10,13 14,10 12,-7 90,63 172,154 280,311 321,832 93,1196 -232,371 -643,532 -1035,406 -304,-98 -548,-369 -625,-696 -9,-38 -21,-79 -26,-90 -5,-11 -10,-62 -12,-112 -1,-51 -6,-93 -10,-93 -5,0 -5,-4 -2,-10 5,-9 -2,-12 -21,-9 -3,0 -15,-6 -28,-14 -17,-12 -33,-13 -62,-7 -24,6 -41,5 -45,-1 -4,-6 -15,-6 -33,1 -17,6 -25,6 -21,0 13,-20 -30,-9 -50,13 -11,13 -28,26 -38,30 -10,4 -16,10 -13,15 2,4 6,37 7,72 1,36 7,68 12,71 12,8 -11,52 -23,44 -5,-3 -14,14 -20,37 -84,340 -252,567 -515,698 -154,77 -295,104 -466,89 z m 156,-155 c 28,-3 55,-10 60,-14 6,-4 28,-11 50,-15 22,-4 58,-17 80,-30 22,-12 61,-28 86,-35 28,-9 49,-21 55,-34 5,-12 17,-22 27,-24 10,-2 40,-27 67,-55 28,-29 61,-63 75,-77 14,-14 25,-31 25,-38 0,-6 14,-27 30,-45 17,-19 30,-43 30,-54 0,-10 9,-26 20,-36 12,-10 20,-29 20,-46 0,-17 5,-33 10,-36 6,-3 10,-16 10,-29 0,-12 5,-27 11,-33 6,-6 13,-71 16,-156 7,-168 -4,-242 -52,-367 -18,-47 -35,-93 -38,-102 -4,-10 -10,-18 -15,-18 -5,0 -15,-15 -22,-32 -7,-18 -24,-47 -37,-65 -12,-17 -23,-36 -23,-42 0,-5 -15,-14 -33,-20 -19,-7 -40,-22 -47,-36 -7,-13 -22,-25 -34,-27 -11,-2 -27,-15 -34,-31 -10,-20 -20,-27 -41,-27 -20,0 -30,-6 -34,-20 -3,-12 -14,-20 -26,-20 -11,0 -51,-14 -88,-30 -87,-39 -250,-54 -323,-31 -52,16 -88,30 -112,42 -10,5 -26,9 -37,9 -10,0 -24,6 -30,14 -6,7 -26,16 -43,20 -19,4 -48,24 -74,51 -23,25 -50,45 -61,45 -10,0 -23,10 -28,23 -6,12 -19,23 -30,25 -12,2 -29,18 -40,37 -10,19 -22,35 -27,35 -15,0 -68,83 -68,107 0,13 -12,35 -26,48 -29,27 -63,133 -64,197 0,20 -4,40 -10,43 -13,8 -13,262 0,270 6,3 10,19 10,34 0,16 7,34 15,41 8,7 15,25 15,40 0,16 7,30 15,34 8,3 15,17 15,30 0,14 11,38 25,53 38,42 75,101 75,122 0,10 11,23 25,29 14,6 25,16 25,22 0,6 16,26 35,44 19,19 35,39 35,45 0,6 11,11 25,11 13,0 28,6 32,13 13,21 91,77 106,77 8,0 34,9 58,20 24,11 54,20 67,20 12,0 22,5 22,10 0,6 26,10 58,10 31,0 64,5 72,10 8,5 22,8 30,5 8,-2 38,-7 65,-11 z m 2210,-15 c 5,-5 28,-9 51,-9 25,0 47,-6 54,-15 7,-8 20,-15 30,-15 26,0 139,-60 150,-79 5,-10 24,-24 42,-32 35,-14 68,-43 68,-59 0,-5 5,-10 10,-10 6,0 15,-11 20,-25 6,-15 17,-25 30,-25 12,0 20,-7 20,-17 0,-9 23,-49 50,-89 28,-40 50,-81 50,-92 0,-12 7,-27 15,-36 8,-8 15,-26 15,-40 0,-13 7,-31 15,-40 9,-9 18,-47 23,-98 10,-91 4,-258 -8,-258 -5,0 -11,-23 -15,-50 -4,-28 -11,-50 -16,-50 -5,0 -9,-9 -9,-21 0,-11 -9,-32 -20,-46 -11,-14 -20,-34 -20,-44 0,-10 -4,-21 -10,-24 -5,-3 -10,-17 -10,-30 0,-14 -9,-29 -20,-35 -12,-6 -20,-21 -20,-35 0,-15 -6,-25 -14,-25 -8,0 -25,-15 -37,-32 -33,-47 -118,-128 -135,-128 -8,0 -22,-9 -32,-20 -9,-12 -37,-31 -61,-43 -24,-12 -46,-27 -48,-34 -3,-7 -19,-13 -35,-13 -16,0 -59,-12 -95,-26 -62,-25 -74,-26 -186,-22 -97,4 -121,8 -129,22 -5,9 -18,16 -29,16 -11,0 -37,9 -59,20 -22,11 -49,20 -60,20 -11,0 -23,7 -26,15 -4,8 -15,15 -26,15 -11,0 -34,16 -51,35 -17,19 -38,35 -47,35 -8,0 -23,13 -33,29 -9,16 -28,32 -42,35 -14,4 -25,12 -25,19 0,7 -13,26 -30,42 -16,16 -30,34 -30,40 0,7 -9,20 -20,30 -11,10 -20,30 -20,45 0,15 -9,35 -20,45 -11,10 -24,34 -29,54 -6,20 -16,59 -23,86 -17,65 -17,357 0,378 7,8 15,35 18,61 4,25 11,46 15,46 5,0 9,15 9,34 0,21 6,36 15,40 8,3 15,14 15,25 0,11 5,23 10,26 6,3 10,15 10,26 0,10 6,19 13,19 14,0 39,35 47,65 3,11 15,21 25,23 12,2 28,20 39,44 13,27 29,45 52,54 18,8 39,22 46,32 7,10 28,24 46,31 17,7 32,20 32,27 0,8 10,14 24,14 14,0 31,6 38,13 17,16 140,57 176,58 15,0 36,4 47,9 24,10 156,1 170,-11 z" />
      <path
         id="pAbwtD7XY"
         d="m 1610,1629 c -25,-6 -52,-19 -60,-30 -9,-11 -26,-26 -39,-32 -12,-7 -31,-28 -41,-47 -9,-19 -30,-59 -45,-88 -54,-105 -69,-261 -40,-417 20,-111 34,-155 51,-162 8,-3 14,-9 14,-14 0,-14 64,-109 73,-109 5,0 33,-11 63,-25 30,-14 72,-28 93,-31 41,-7 128,9 171,31 65,34 149,143 150,196 0,9 6,22 14,28 40,34 32,400 -10,451 -7,8 -14,33 -16,55 -2,32 -7,41 -25,43 -15,2 -26,14 -33,38 -6,18 -19,40 -29,46 -9,7 -20,20 -23,28 -13,35 -180,59 -268,39 z" />
      <path
         id="pqZoKCQ0"
         d="m 3545,1624 c -22,-8 -48,-18 -57,-21 -10,-3 -18,-9 -18,-14 0,-5 -16,-26 -36,-46 -47,-49 -74,-93 -74,-119 0,-11 -6,-34 -14,-50 -24,-48 -38,-222 -25,-311 11,-82 51,-214 73,-248 43,-64 109,-112 180,-130 76,-20 108,-19 169,6 107,44 136,62 143,91 3,16 9,28 14,28 16,0 62,115 77,195 11,58 14,109 9,185 -9,156 -16,189 -37,195 -11,4 -19,16 -19,29 0,13 -9,35 -20,49 -11,14 -20,34 -20,45 0,13 -9,22 -24,26 -13,3 -29,18 -35,34 -16,39 -68,59 -166,66 -60,5 -90,2 -120,-10 z" />
    </g>
  </g>
  <g
     id="l72zCN9zFLZfyRJTSrF2fOo"
     fill="#faf6e9"
     transform="matrix(1.2037311,0,0,1.1778533,-560.25132,-183.78022)">
    <g
       id="g2">
      <path
         id="pmtmwN2ic"
         d="m 3700,2047 c 0,-19 -37,-37 -75,-37 -34,0 -157,-41 -174,-58 -8,-7 -23,-11 -34,-8 -13,3 -21,-1 -24,-14 -3,-10 -19,-24 -36,-31 -18,-7 -38,-21 -45,-31 -7,-10 -28,-24 -46,-32 -23,-9 -39,-27 -52,-54 -11,-24 -27,-42 -39,-44 -10,-2 -22,-12 -25,-23 -8,-30 -33,-65 -47,-65 -7,0 -13,-9 -13,-19 0,-11 -4,-23 -10,-26 -5,-3 -10,-15 -10,-27 0,-11 -8,-22 -19,-25 -16,-4 -18,-11 -14,-39 3,-20 1,-34 -4,-34 -6,0 -13,-21 -17,-46 -3,-26 -11,-53 -18,-61 -26,-31 -25,-346 2,-438 4,-16 11,-47 15,-67 3,-21 17,-51 30,-67 14,-16 25,-40 25,-53 0,-14 9,-33 20,-43 11,-10 20,-23 20,-30 0,-6 14,-24 30,-40 17,-16 30,-35 30,-42 0,-7 11,-15 25,-19 14,-3 33,-19 42,-35 10,-16 25,-29 33,-29 9,0 30,-16 47,-35 17,-19 40,-35 51,-35 12,0 23,-9 27,-20 5,-14 14,-20 33,-18 15,1 46,-8 70,-21 23,-12 47,-19 52,-16 6,4 13,0 16,-8 6,-16 81,-29 179,-31 28,-1 55,-5 61,-9 6,-3 14,-3 18,0 4,4 17,8 29,8 12,1 53,14 91,29 39,16 81,26 97,24 19,-3 29,0 32,11 2,9 24,26 48,38 24,12 52,31 61,43 10,11 24,20 32,20 17,0 102,81 135,127 12,18 29,33 37,33 8,0 14,10 14,25 0,14 8,29 20,35 11,6 20,21 20,33 0,13 5,28 10,33 6,6 12,20 15,32 2,13 13,34 24,48 11,14 17,32 14,40 -3,8 -1,14 5,14 5,0 13,21 17,48 4,26 11,50 16,53 14,8 20,326 7,355 -9,18 -8,28 0,36 7,7 12,17 12,22 0,6 -4,5 -9,-2 -6,-11 -11,-10 -25,4 -13,13 -16,26 -11,52 5,25 3,32 -5,27 -14,-9 -30,12 -30,39 0,10 -21,48 -46,85 -26,36 -50,77 -54,91 -4,15 -14,25 -25,25 -10,0 -21,10 -26,23 -5,12 -13,22 -19,22 -5,0 -10,6 -10,14 0,8 -7,16 -15,20 -8,3 -15,15 -15,28 0,17 -3,19 -12,10 -15,-15 -43,0 -84,45 -17,18 -33,30 -37,27 -4,-4 -25,5 -47,20 -23,15 -47,25 -53,23 -7,-2 -19,1 -27,8 -24,20 -79,35 -86,24 -4,-6 -11,-6 -20,2 -8,6 -51,13 -97,15 -63,3 -85,8 -94,21 -12,16 -13,16 -13,0 z m 52,-465 c 23,-9 41,-26 49,-44 7,-16 22,-31 36,-34 14,-4 22,-12 19,-20 -3,-7 5,-25 16,-40 12,-15 23,-36 24,-48 1,-11 3,-24 3,-28 1,-4 10,-10 21,-13 16,-5 19,-12 14,-32 -4,-15 -2,-28 5,-32 13,-8 17,-181 6,-266 -6,-52 -50,-163 -71,-181 -7,-5 -15,-21 -19,-35 -6,-25 -40,-46 -142,-88 -49,-20 -55,-20 -109,-6 -72,18 -137,66 -180,131 -14,20 -53,132 -60,169 -16,93 -19,135 -12,156 5,13 7,32 4,42 -7,27 11,126 26,145 7,8 12,23 10,33 -4,25 20,67 67,117 23,23 41,46 41,51 0,5 8,11 18,14 9,3 35,12 57,20 46,18 121,13 177,-11 z" />
      <path
         id="pNsc8Y3Xa"
         d="m 1546,2033 c -4,-5 -35,-8 -69,-8 -38,-1 -62,-5 -65,-13 -2,-7 -13,-12 -23,-12 -11,0 -43,-10 -70,-21 -27,-12 -52,-19 -56,-16 -5,6 -39,-19 -99,-74 -12,-10 -31,-19 -43,-19 -12,0 -21,-5 -21,-11 0,-6 -16,-26 -35,-45 -19,-18 -35,-38 -35,-44 0,-5 -14,-17 -31,-25 -22,-12 -28,-21 -24,-35 3,-10 1,-21 -5,-25 -6,-3 -19,-24 -31,-46 -11,-22 -23,-37 -28,-35 -10,7 -31,-38 -31,-65 0,-12 -10,-23 -25,-29 -14,-5 -25,-14 -25,-20 0,-6 5,-8 10,-5 18,11 10,-32 -9,-49 -11,-10 -17,-25 -14,-37 3,-10 -1,-26 -8,-35 -7,-9 -14,-41 -16,-72 -1,-32 -3,-61 -3,-67 -3,-40 12,-181 20,-189 6,-6 10,-26 10,-46 1,-58 36,-172 59,-190 12,-8 24,-29 27,-45 7,-37 34,-82 74,-118 16,-16 33,-40 36,-53 4,-17 11,-23 22,-19 19,7 42,-12 42,-37 0,-15 5,-18 20,-13 15,5 30,-4 60,-35 22,-23 40,-45 40,-48 0,-4 14,-8 31,-9 18,-1 39,-9 49,-18 9,-8 24,-15 33,-15 17,0 25,-3 83,-33 17,-9 33,-14 36,-11 3,2 27,-5 53,-16 30,-13 56,-18 69,-13 11,4 41,8 66,8 97,4 163,17 225,46 37,16 74,28 83,27 10,-2 21,7 27,20 7,15 18,22 37,22 19,0 31,8 40,28 8,16 21,26 30,24 10,-1 24,10 35,28 17,29 52,47 80,42 8,-2 10,3 7,12 -4,9 7,33 26,56 17,22 29,40 25,40 -9,0 16,44 31,53 8,4 14,13 14,20 0,7 13,44 30,84 31,73 60,192 60,244 0,16 5,29 11,29 5,0 7,5 3,11 -3,6 -7,57 -8,114 0,57 -4,107 -8,111 -5,4 -8,24 -8,45 0,21 -4,40 -9,44 -5,3 -8,16 -5,29 3,16 -2,26 -12,30 -11,4 -15,14 -11,31 3,18 -3,32 -19,48 -13,12 -24,31 -24,41 0,11 -12,32 -26,47 -14,14 -27,34 -28,43 -1,9 -14,29 -29,44 -14,15 -47,48 -72,73 -25,25 -45,51 -45,58 0,7 -10,11 -22,9 -16,-2 -26,4 -32,18 -8,18 -44,35 -99,49 -10,2 -33,13 -50,24 -18,10 -50,23 -72,26 -22,4 -44,11 -50,15 -11,8 -141,30 -178,30 -13,0 -27,-3 -31,-7 z m 258,-445 c 21,-7 41,-19 44,-27 3,-9 14,-22 23,-29 10,-6 23,-28 29,-46 7,-24 18,-36 33,-38 18,-2 22,-10 22,-39 0,-20 7,-45 16,-55 9,-11 20,-41 24,-69 5,-27 10,-57 11,-65 7,-33 7,-127 0,-138 -3,-6 -7,-33 -7,-61 -1,-29 -7,-55 -15,-62 -8,-6 -14,-19 -14,-28 -1,-33 -40,-102 -82,-142 -39,-37 -89,-70 -103,-69 -3,1 -21,-4 -41,-9 -38,-10 -87,1 -150,34 -16,8 -33,15 -39,15 -11,0 -75,94 -75,109 0,5 -6,11 -14,14 -8,3 -21,30 -29,59 -49,171 -42,342 18,460 15,29 36,69 45,88 10,19 29,40 41,47 13,6 30,21 39,32 29,38 130,46 224,19 z" />
    </g>
  </g>
</svg>
